<svg width="204" height="146" viewBox="0 0 204 146" fill="none" xmlns="http://www.w3.org/2000/svg">
<path d="M128.767 14.8684L36.1964 13.2996C32.8402 13.2428 29.8214 15.3443 28.7048 18.5155L5.93586 83.0891L5.3748 114.325C5.2973 118.64 8.72155 122.193 13.0274 122.266L134.597 124.326L136.42 22.8095C136.498 18.4947 133.073 14.9414 128.767 14.8684Z" fill="#FFB507"/>
<path d="M184.63 51.9701C183.497 48.9866 180.669 46.9935 177.482 46.9394L136 46.2365L134.597 124.326L189.148 125.251C193.454 125.324 197.003 121.889 197.081 117.574L197.642 86.3379L184.63 51.9701Z" fill="#00A09B"/>
<path d="M188.712 62.7525L197.642 86.3379L158.678 85.6776L159.099 62.2506L188.712 62.7525Z" fill="#7C8388"/>
<path d="M166.05 109.237C174.657 109.383 181.51 116.494 181.355 125.119C181.2 133.744 174.096 140.618 165.489 140.473C156.881 140.327 150.028 133.215 150.183 124.59C150.338 115.966 157.442 109.091 166.05 109.237Z" fill="#7A7A7A"/>
<path d="M70.1971 107.612C78.8043 107.758 85.6573 114.869 85.5024 123.494C85.3475 132.119 78.2433 138.994 69.6361 138.848C61.0289 138.702 54.1759 131.591 54.3308 122.966C54.4857 114.341 61.5899 107.466 70.1971 107.612Z" fill="#7A7A7A"/>
<path d="M39.0253 107.084C47.6324 107.23 54.4854 114.341 54.3305 122.966C54.1756 131.591 47.0714 138.466 38.4642 138.32C29.857 138.174 23.004 131.063 23.1589 122.438C23.3138 113.813 30.4181 106.938 39.0253 107.084Z" fill="#7A7A7A"/>
<path d="M169.665 124.921C169.626 127.077 167.851 128.796 165.699 128.759C163.546 128.723 161.834 126.945 161.872 124.789C161.911 122.632 163.687 120.914 165.839 120.95C167.991 120.987 169.704 122.764 169.665 124.921Z" fill="black"/>
<path d="M73.8126 123.296C73.7739 125.453 71.9982 127.171 69.846 127.135C67.6938 127.098 65.981 125.321 66.0197 123.164C66.0584 121.007 67.8341 119.289 69.9863 119.326C72.1385 119.362 73.8514 121.14 73.8126 123.296Z" fill="black"/>
<path d="M42.6407 122.768C42.602 124.925 40.8263 126.643 38.6742 126.606C36.522 126.57 34.8091 124.792 34.8478 122.636C34.8866 120.479 36.6622 118.761 38.8144 118.797C40.9666 118.834 42.6795 120.611 42.6407 122.768Z" fill="black"/>
<path fill-rule="evenodd" clip-rule="evenodd" d="M189.094 129.099C195.542 129.207 200.884 124.043 201.001 117.587L201.571 86.3698C201.58 85.8424 201.454 85.2547 201.291 84.8419L188.309 50.5698C186.603 46.0708 182.394 43.1127 177.587 43.0326L139.988 42.406L140.344 22.8949C140.462 16.4395 135.312 11.1008 128.864 10.9933L122.627 10.8894L122.699 6.98719C122.738 4.83183 121.025 3.05589 118.872 3.02001C116.719 2.98413 114.942 4.7019 114.903 6.85726L114.832 10.7595L99.2403 10.4996L99.3115 6.5974C99.3508 4.44204 97.6378 2.6661 95.4848 2.63022C93.3319 2.59434 91.5551 4.31211 91.5158 6.46747L91.4446 10.3697L75.8532 10.1098L75.9244 6.20761C75.9637 4.05225 74.2506 2.27631 72.0977 2.24043C69.9447 2.20455 68.168 3.92232 68.1287 6.07768L68.0575 9.9799L52.4661 9.72004L52.5373 5.81782C52.5766 3.66246 50.8635 1.88653 48.7106 1.85064C46.5576 1.81476 44.7809 3.53253 44.7416 5.68789L44.6704 9.59011L36.2595 9.44992C31.2152 9.36585 26.6968 12.5093 25.0168 17.2721L2.22269 81.8137C2.08299 82.2078 2.00838 82.6244 2.00073 83.0436L1.4313 114.261C1.31355 120.717 6.46311 126.055 12.9113 126.163L19.5407 126.273C20.0743 129.166 21.2486 131.838 22.914 134.136L4.97325 133.837C2.8203 133.801 1.04354 135.519 1.00422 137.675C0.964905 139.83 2.67794 141.606 4.83089 141.642L83.1777 142.948C85.3307 142.983 87.1074 141.266 87.1467 139.11C87.1753 137.545 86.2787 136.185 84.9608 135.541C86.8597 133.221 88.2427 130.46 88.9164 127.43L146.611 128.391C147.144 131.283 148.319 133.956 149.984 136.254L118.401 135.728C116.248 135.692 114.471 137.41 114.432 139.565C114.392 141.72 116.105 143.496 118.258 143.532L196.605 144.838C198.758 144.874 200.535 143.156 200.574 141.001C200.614 138.845 198.901 137.069 196.748 137.034L181.146 136.774C182.894 134.532 184.165 131.9 184.804 129.028L189.094 129.099ZM38.5308 134.41C32.0819 134.303 26.9319 128.963 27.0497 122.507C27.1675 116.051 32.5092 110.886 38.958 110.994C45.4069 111.101 50.5569 116.441 50.4391 122.897C50.3213 129.353 44.9796 134.517 38.5308 134.41ZM58.2212 123.035C58.1034 129.492 63.2535 134.831 69.7023 134.938C76.1512 135.046 81.4929 129.881 81.6107 123.425C81.7285 116.969 76.5784 111.63 70.1296 111.522C63.6807 111.415 58.339 116.579 58.2212 123.035ZM130.782 120.312L89.0696 119.617C87.4214 110.691 79.6702 103.846 70.2571 103.689C63.8877 103.583 58.1673 106.564 54.5223 111.248C51.0504 106.445 45.4421 103.276 39.0728 103.17C29.6612 103.013 21.6635 109.595 19.6907 118.461L13.061 118.351C10.911 118.315 9.19492 116.536 9.23419 114.383L9.79224 83.7964L32.3772 19.8481C32.9363 18.2593 34.4435 17.2125 36.126 17.2405L128.735 18.7836C130.885 18.8195 132.601 20.5986 132.562 22.751L130.782 120.312ZM191.959 82.3266L186.007 66.6155L162.922 66.2305L162.637 81.8376L191.959 82.3266ZM165.555 136.563C159.106 136.455 153.956 131.116 154.074 124.66C154.192 118.204 159.533 113.039 165.982 113.146C172.431 113.254 177.581 118.593 177.463 125.049C177.346 131.506 172.004 136.67 165.555 136.563ZM146.729 120.618C148.702 111.751 156.701 105.168 166.114 105.325C175.527 105.481 183.281 112.327 184.929 121.255L189.221 121.326C191.371 121.362 193.151 119.641 193.19 117.488L193.404 105.779L185.607 105.649C183.453 105.613 181.74 103.837 181.779 101.681C181.819 99.5256 183.596 97.8075 185.749 97.8434L193.546 97.9734L193.689 90.1674L158.602 89.5827C156.448 89.5468 154.735 87.7705 154.774 85.6147L155.201 62.1968C155.241 60.0411 157.018 58.3229 159.171 58.3588L183.042 58.7566L181.002 53.3681C180.434 51.8687 179.029 50.8814 177.427 50.8547L139.821 50.228L138.539 120.482L146.729 120.618Z" fill="black"/>
<path d="M104.703 139.442C104.665 141.599 102.889 143.317 100.737 143.281C98.5845 143.244 96.8716 141.467 96.9103 139.31C96.9491 137.154 98.7247 135.435 100.877 135.472C103.029 135.508 104.742 137.286 104.703 139.442Z" fill="black"/>
<path d="M53.3628 91.7041L56.2273 91.7527C58.3795 91.7892 60.1551 90.0709 60.1939 87.9142C60.2326 85.7576 58.5197 83.9802 56.3675 83.9437L53.503 83.8952C50.4315 83.8431 48.643 80.4304 50.3075 77.865L58.2324 65.6461L58.7309 67.6486C59.2476 69.7307 61.3545 71.0174 63.4529 70.49C65.542 69.9686 66.8133 67.8481 66.2937 65.7552L63.633 55.0397C63.6245 55.0045 63.6114 54.9691 63.6014 54.9339C63.0308 52.8798 60.9267 51.6923 58.9109 52.1982L48.2144 54.876C46.1252 55.399 44.8539 57.5195 45.3736 59.6108C45.8917 61.7037 48.0064 62.9768 50.0956 62.4523L51.1891 62.1779L43.7731 73.6152C38.7669 81.3371 44.1757 91.5485 53.3628 91.7041Z" fill="black"/>
<path d="M106.727 78.8212C107.793 80.5983 107.102 82.1901 106.761 82.7839C106.415 83.3837 105.386 84.7744 103.317 84.7394L87.818 84.4767L88.9786 83.3522C90.5281 81.8528 90.5725 79.3804 89.0778 77.8294C87.5846 76.28 85.1174 76.2382 83.568 77.7361L75.6348 85.413C75.6209 85.4265 75.61 85.44 75.5976 85.4535C74.0954 86.9476 74.0627 89.3607 75.4998 90.8939C75.5118 90.9078 75.5222 90.9217 75.5356 90.9357L83.1883 98.8768C84.6829 100.426 87.1487 100.468 88.6981 98.9701C90.2475 97.4707 90.2919 94.9984 88.7973 93.4474L87.6763 92.2857L103.175 92.5484C107.484 92.6214 111.345 90.4319 113.509 86.6834C115.664 82.9378 115.626 78.4929 113.409 74.7923L112.281 72.9149C111.172 71.0668 108.777 70.4724 106.933 71.5854C105.088 72.6984 104.492 75.0988 105.601 76.9454L106.727 78.8212Z" fill="black"/>
<path d="M69.3479 41.3446C71.1507 42.5194 73.5655 42.005 74.7399 40.1956L75.93 38.3606C77.5037 35.934 81.059 36.005 82.5387 38.4726L89.5396 50.1512L88.4566 49.8399C86.3875 49.2464 84.2298 50.4472 83.6354 52.5196C83.0409 54.5936 84.2368 56.7559 86.3044 57.3493L96.8983 60.3864C96.9074 60.3896 96.915 60.3897 96.924 60.3929C98.9844 60.9664 101.128 59.77 101.719 57.7067L104.763 47.0878C105.358 45.0154 104.163 42.8531 102.094 42.2596C100.025 41.6662 97.8676 42.8669 97.2717 44.9393L96.7031 46.9253L89.2203 34.4437C84.7679 27.0191 74.1026 26.8552 69.3956 34.1077L68.2056 35.9427C67.0327 37.7521 67.5434 40.1713 69.3479 41.3446Z" fill="black"/>
</svg>
