<svg width="24" height="23" viewBox="0 0 24 23" fill="none" xmlns="http://www.w3.org/2000/svg">
<path fill-rule="evenodd" clip-rule="evenodd" d="M23.8222 5.83183C23.6481 2.0585 21.8613 0.254828 18.0361 0.0818256C16.5469 0.0140272 16.0999 0 12.3311 0C8.56226 0 8.11645 0.0140272 6.62727 0.0806566C2.79847 0.253659 1.0164 2.0585 0.841129 5.83066C0.774081 7.31053 0.758789 7.75356 0.758789 11.4988C0.758789 15.2453 0.772904 15.6883 0.841129 17.167C1.01522 20.9322 2.79259 22.744 6.62727 22.9182C8.11527 22.986 8.56226 23 12.3311 23C16.1022 23 16.5469 22.986 18.0361 22.9182C21.8649 22.7452 23.6469 20.938 23.8222 17.1682C23.8893 15.6895 23.9034 15.2464 23.9034 11.5C23.9034 7.75473 23.8904 7.31053 23.8222 5.83183ZM4.84313 11.4994C4.84313 7.3903 8.19581 4.05882 12.3311 4.05882C16.4663 4.05882 19.819 7.3903 19.819 11.4994C19.819 15.6097 16.4663 18.9412 12.3311 18.9412C8.19581 18.9412 4.84313 15.6085 4.84313 11.4994ZM12.3311 16.2353C9.69957 16.2353 7.56602 14.1163 7.56602 11.5C7.56602 8.88493 9.69957 6.76471 12.3311 6.76471C14.9626 6.76471 17.0961 8.88493 17.0961 11.5C17.0961 14.1163 14.9626 16.2353 12.3311 16.2353ZM18.4576 4.05882C18.4576 3.31189 19.0674 2.70588 19.82 2.70588C20.5716 2.70588 21.1805 3.31189 21.1805 4.05882C21.1805 4.80576 20.5716 5.41176 19.82 5.41176C19.0674 5.41176 18.4576 4.80576 18.4576 4.05882Z" fill="#FFB507"/>
</svg>
