<svg width="29" height="23" viewBox="0 0 29 23" fill="none" xmlns="http://www.w3.org/2000/svg">
<path d="M9.40061 22.9998C20.1899 22.9998 26.0902 14.1518 26.0902 6.47953C26.0902 6.22823 26.0849 5.97798 26.0736 5.7291C27.2188 4.90945 28.2141 3.88661 28.9995 2.72237C27.9486 3.18499 26.8173 3.49599 25.631 3.6367C26.842 2.9176 27.7718 1.78053 28.2103 0.425057C27.077 1.09016 25.8218 1.57337 24.4856 1.83436C23.4153 0.705775 21.8912 0 20.2038 0C16.9646 0 14.3376 2.60019 14.3376 5.80543C14.3376 6.26129 14.3892 6.70435 14.4897 7.1294C9.61462 6.88659 5.29147 4.57629 2.39871 1.06299C1.89516 1.92089 1.60458 2.91777 1.60458 3.98145C1.60458 5.99563 2.64017 7.77426 4.21479 8.8144C3.25246 8.78515 2.34853 8.52365 1.55824 8.08838C1.55737 8.11278 1.55737 8.13649 1.55737 8.16245C1.55737 10.9745 3.57924 13.3223 6.26359 13.8543C5.77054 13.9871 5.25178 14.0586 4.71677 14.0586C4.33946 14.0586 3.97159 14.0219 3.61421 13.9539C4.36096 16.2609 6.52656 17.9396 9.09394 17.9867C7.08623 19.5443 4.55713 20.4722 1.80844 20.4722C1.33567 20.4722 0.868315 20.4453 0.40918 20.3917C3.00524 22.0388 6.0877 22.9998 9.40061 22.9998Z" fill="#FFB507"/>
</svg>
