<svg width="305" height="230" viewBox="0 0 305 230" fill="none" xmlns="http://www.w3.org/2000/svg">
<g filter="url(#filter0_d)">
<path fill-rule="evenodd" clip-rule="evenodd" d="M40.4195 152.344L41.8778 165.829L37.1425 154.905L27.757 162.238L46.2491 204.983L56.1368 199.232L51.2333 188.234L59.5031 197.274L70.4634 190.899L52.9389 172.468L50.8621 144.185L40.4195 152.344Z" fill="white"/>
<path fill-rule="evenodd" clip-rule="evenodd" d="M81.3065 163.048L79.8492 156.395L83.1594 161.848L81.3065 163.048ZM92.2964 176.902L105.41 169.044L75.3664 122.87L62.8334 132.956L73.6626 188.068L85.2642 181.116L83.5906 173.475L88.3874 170.462L92.2964 176.902Z" fill="white"/>
<path fill-rule="evenodd" clip-rule="evenodd" d="M127.216 157.434L113.98 119.801L121.598 114.079L114.429 93.1126L84.7085 117.385L91.6532 136.232L98.5432 130.923L111.512 166.986L127.216 157.434Z" fill="white"/>
<path fill-rule="evenodd" clip-rule="evenodd" d="M149.674 118.236L146.493 120.283L145.173 110.549L149.674 118.236ZM132.461 152.132L149.441 142.016L148.124 132.31L155.294 127.833L159.936 135.763L179.647 124.019L143.485 67.5288L124.195 82.9631L132.461 152.132Z" fill="white"/>
<path fill-rule="evenodd" clip-rule="evenodd" d="M218.987 7.96787L193.522 28.1486L191.025 54.2949L185.187 34.7545L163.625 51.8427L185.372 120.442L207.095 107.624L201.825 89.8028L215.164 102.914L240.769 87.8061L211.858 61.2806L218.987 7.96787Z" fill="white"/>
<path fill-rule="evenodd" clip-rule="evenodd" d="M122.124 64.9817L30.125 150.346L126.548 71.9613L122.124 64.9817Z" fill="white"/>
<path fill-rule="evenodd" clip-rule="evenodd" d="M271.315 159.243L276.403 150.296L180.733 185.588L271.315 159.243Z" fill="white"/>
<path fill-rule="evenodd" clip-rule="evenodd" d="M281.879 52.5506L242.949 86.6589L286.604 60.9565L281.879 52.5506Z" fill="white"/>
<path fill-rule="evenodd" clip-rule="evenodd" d="M137.976 159.829L139.458 195.739L148.212 192.236L146.356 154.549L137.976 159.829Z" fill="white"/>
<path fill-rule="evenodd" clip-rule="evenodd" d="M132.781 160.834L111.803 174.072L112.653 184.538L119.38 180.751L120.494 201.931L128.515 198.874L127.549 176.349L133.425 172.996L132.781 160.834Z" fill="white"/>
<path fill-rule="evenodd" clip-rule="evenodd" d="M274.829 78.1835L272.767 101.789L265.685 105.444L267.801 82.2987L247.719 94.0554L243.894 156.251L262.332 149.415L264.084 126.426L270.948 123.366L268.653 147.071L291.17 138.722L299.518 63.7332L299.518 63.7297L274.829 78.1835Z" fill="white"/>
<path fill-rule="evenodd" clip-rule="evenodd" d="M239.761 158.098L242.759 97.5269L226.748 107.473L226.101 126.858L221.183 129.552L221.616 110.661L207.815 119.235L207.428 170.834L220.461 165.701L220.823 144.931L225.249 142.83L224.88 163.96L239.761 158.098Z" fill="white"/>
<path fill-rule="evenodd" clip-rule="evenodd" d="M188.384 176.05L200.417 171.78L200.737 122.884L187.803 130.137L188.072 145.866L184.299 147.731L184.034 132.251L172.914 138.487L174.012 181.122L184.452 177.418L184.29 161.885L188.061 160.271L188.384 176.05Z" fill="white"/>
<path fill-rule="evenodd" clip-rule="evenodd" d="M152.693 191.621L167.47 185.734C171.873 183.98 172.199 179.413 172.199 179.413L171.718 163.815C171.401 158.938 167.305 160.49 167.305 160.49L161.256 163.795C159.471 164.63 159.622 163.121 159.622 163.121L159.484 161.459L171.539 154.781L171.192 139.763L153.406 150.935C151.116 152.682 151.001 156.198 151.001 156.198L152.002 171.471C152.49 175.16 155.434 173.425 155.434 173.425L161.198 170.603C162.909 169.766 162.807 171.317 162.807 171.317L162.9 172.917L152.082 178.103L152.693 191.621Z" fill="white"/>
</g>
<defs>
<filter id="filter0_d" x="0.0168457" y="-2.32205" width="305.449" height="236.682" filterUnits="userSpaceOnUse" color-interpolation-filters="sRGB">
<feFlood flood-opacity="0" result="BackgroundImageFix"/>
<feColorMatrix in="SourceAlpha" type="matrix" values="0 0 0 0 0 0 0 0 0 0 0 0 0 0 0 0 0 0 127 0"/>
<feOffset dx="-11" dy="9"/>
<feGaussianBlur stdDeviation="8"/>
<feColorMatrix type="matrix" values="0 0 0 0 0 0 0 0 0 0 0 0 0 0 0 0 0 0 0.565614 0"/>
<feBlend mode="normal" in2="BackgroundImageFix" result="effect1_dropShadow"/>
<feBlend mode="normal" in="SourceGraphic" in2="effect1_dropShadow" result="shape"/>
</filter>
</defs>
</svg>
