<svg width="305" height="231" viewBox="0 0 305 231" fill="none" xmlns="http://www.w3.org/2000/svg">
<g filter="url(#filter0_d)">
<path fill-rule="evenodd" clip-rule="evenodd" d="M40.4027 152.666L41.8609 166.151L37.1257 155.227L27.7402 162.56L46.2322 205.305L56.12 199.554L51.2164 188.556L59.4862 197.596L70.4465 191.221L52.922 172.79L50.8452 144.507L40.4027 152.666Z" fill="white"/>
<path fill-rule="evenodd" clip-rule="evenodd" d="M81.2897 163.37L79.8323 156.717L83.1426 162.17L81.2897 163.37ZM92.2796 177.224L105.393 169.366L75.3495 123.192L62.8165 133.278L73.6458 188.39L85.2473 181.438L83.5737 173.797L88.3705 170.784L92.2796 177.224Z" fill="white"/>
<path fill-rule="evenodd" clip-rule="evenodd" d="M127.199 157.757L113.963 120.123L121.581 114.401L114.412 93.4346L84.6917 117.707L91.6363 136.554L98.5264 131.245L111.495 167.308L127.199 157.757Z" fill="white"/>
<path fill-rule="evenodd" clip-rule="evenodd" d="M149.657 118.558L146.476 120.605L145.156 110.871L149.657 118.558ZM132.444 152.454L149.424 142.338L148.107 132.632L155.277 128.155L159.919 136.085L179.63 124.341L143.468 67.8509L124.178 83.2852L132.444 152.454Z" fill="white"/>
<path fill-rule="evenodd" clip-rule="evenodd" d="M218.97 8.28992L193.505 28.4706L191.008 54.617L185.17 35.0766L163.608 52.1648L185.355 120.764L207.078 107.946L201.809 90.1248L215.147 103.236L240.752 88.1281L211.841 61.6026L218.97 8.28992Z" fill="white"/>
<path fill-rule="evenodd" clip-rule="evenodd" d="M122.107 65.3037L30.1081 150.668L126.531 72.2834L122.107 65.3037Z" fill="white"/>
<path fill-rule="evenodd" clip-rule="evenodd" d="M271.298 159.565L276.387 150.618L180.716 185.91L271.298 159.565Z" fill="white"/>
<path fill-rule="evenodd" clip-rule="evenodd" d="M281.862 52.8726L242.932 86.981L286.587 61.2786L281.862 52.8726Z" fill="white"/>
<path fill-rule="evenodd" clip-rule="evenodd" d="M137.959 160.151L139.442 196.061L148.195 192.558L146.339 154.871L137.959 160.151Z" fill="white"/>
<path fill-rule="evenodd" clip-rule="evenodd" d="M132.764 161.157L111.787 174.394L112.636 184.86L119.364 181.073L120.477 202.253L128.498 199.196L127.532 176.671L133.409 173.318L132.764 161.157Z" fill="white"/>
<path fill-rule="evenodd" clip-rule="evenodd" d="M274.812 78.5055L272.75 102.111L265.668 105.766L267.784 82.6207L247.702 94.3775L243.878 156.573L262.315 149.737L264.067 126.748L270.931 123.688L268.636 147.393L291.153 139.044L299.501 64.0552L299.501 64.0517L274.812 78.5055Z" fill="white"/>
<path fill-rule="evenodd" clip-rule="evenodd" d="M239.745 158.42L242.742 97.8489L226.731 107.796L226.084 127.18L221.166 129.874L221.599 110.983L207.798 119.557L207.411 171.156L220.444 166.023L220.806 145.253L225.232 143.152L224.863 164.282L239.745 158.42Z" fill="white"/>
<path fill-rule="evenodd" clip-rule="evenodd" d="M188.367 176.372L200.4 172.102L200.72 123.206L187.786 130.459L188.055 146.188L184.282 148.053L184.017 132.573L172.897 138.809L173.995 181.444L184.435 177.74L184.273 162.207L188.044 160.593L188.367 176.372Z" fill="white"/>
<path fill-rule="evenodd" clip-rule="evenodd" d="M152.676 191.944L167.453 186.056C171.856 184.302 172.182 179.735 172.182 179.735L171.701 164.137C171.385 159.26 167.288 160.812 167.288 160.812L161.239 164.117C159.454 164.952 159.605 163.443 159.605 163.443L159.467 161.781L171.522 155.103L171.175 140.085L153.389 151.257C151.1 153.004 150.984 156.52 150.984 156.52L151.985 171.793C152.473 175.482 155.417 173.747 155.417 173.747L161.181 170.925C162.892 170.088 162.79 171.639 162.79 171.639L162.883 173.239L152.066 178.425L152.676 191.944Z" fill="white"/>
</g>
<defs>
<filter id="filter0_d" x="0" y="-2" width="305.449" height="236.682" filterUnits="userSpaceOnUse" color-interpolation-filters="sRGB">
<feFlood flood-opacity="0" result="BackgroundImageFix"/>
<feColorMatrix in="SourceAlpha" type="matrix" values="0 0 0 0 0 0 0 0 0 0 0 0 0 0 0 0 0 0 127 0"/>
<feOffset dx="-11" dy="9"/>
<feGaussianBlur stdDeviation="8"/>
<feColorMatrix type="matrix" values="0 0 0 0 0 0 0 0 0 0 0 0 0 0 0 0 0 0 0.565614 0"/>
<feBlend mode="normal" in2="BackgroundImageFix" result="effect1_dropShadow"/>
<feBlend mode="normal" in="SourceGraphic" in2="effect1_dropShadow" result="shape"/>
</filter>
</defs>
</svg>
