<svg width="111" height="69" viewBox="0 0 111 69" fill="none" xmlns="http://www.w3.org/2000/svg">
<path fill-rule="evenodd" clip-rule="evenodd" d="M10 0C4.47715 0 0 4.47716 0 10V53.8185C0 59.3414 4.47715 63.8185 10 63.8185H77.2306C78.1255 68.9694 85.4951 69.8684 87.4483 64.7213L87.7909 63.8185H101C106.523 63.8185 111 59.3414 111 53.8185V10C111 4.47715 106.523 0 101 0H10Z" fill="#FFB507"/>
<path fill-rule="evenodd" clip-rule="evenodd" d="M55 36.6365C55 42.1975 49.94 45.9048 44.22 45.9048C38.28 45.9048 33 42.1975 33 36.6365C33 33.2219 34.54 30.0023 37.29 26.5877L44.22 17.9048H52.58L48.51 28.1487C52.58 29.3194 55 32.6365 55 36.6365ZM79 36.6365C79 42.1975 73.94 45.9048 68.22 45.9048C62.28 45.9048 57 42.1975 57 36.6365C57 33.2219 58.54 30.0023 61.29 26.5877L68.22 17.9048H76.58L72.51 28.1487C76.58 29.3194 79 32.6365 79 36.6365Z" fill="#450064"/>
</svg>
